<?xml version="1.0" standalone="no"?>
<!DOCTYPE svg PUBLIC "-//W3C//DTD SVG 20010904//EN"
 "http://www.w3.org/TR/2001/REC-SVG-20010904/DTD/svg10.dtd">
<svg version="1.0" xmlns="http://www.w3.org/2000/svg"
 width="1280.000000pt" height="781.000000pt" viewBox="0 0 1280.000000 781.000000"
 preserveAspectRatio="xMidYMid meet">
<g transform="translate(0.000000,781.000000) scale(0.100000,-0.100000)"
fill="#000000" stroke="none">
<path d="M4060 6564 c-675 -60 -1264 -249 -1818 -583 -681 -411 -1161 -922
-1352 -1441 -37 -100 -97 -321 -117 -435 -22 -119 -22 -407 0 -518 51 -255
176 -460 371 -608 216 -164 453 -229 785 -216 552 23 1074 293 1606 831 316
320 504 635 576 966 20 90 23 134 24 310 0 226 -8 270 -67 382 -92 173 -297
257 -593 245 -467 -19 -939 -260 -1350 -689 -258 -269 -381 -511 -442 -868
-36 -212 17 -408 147 -541 88 -90 205 -136 240 -94 10 12 5 21 -27 50 -21 20
-50 43 -65 51 -40 21 -34 26 8 8 50 -21 159 -23 178 -4 25 25 3 41 -66 50 -75
9 -115 27 -163 75 -57 57 -63 79 -54 172 35 343 255 703 652 1064 266 242 518
399 787 490 123 42 293 52 396 24 78 -21 166 -76 218 -136 46 -53 96 -154 103
-209 3 -23 10 -37 16 -33 7 4 8 -20 3 -73 -33 -359 -223 -702 -596 -1074 -433
-431 -872 -695 -1303 -782 -95 -19 -142 -23 -302 -22 -172 1 -200 3 -290 27
-255 68 -440 211 -539 417 l-41 85 0 190 c0 212 11 280 72 465 134 405 494
891 973 1311 590 518 1310 834 2073 910 139 13 658 7 782 -11 256 -35 486
-101 671 -191 123 -60 278 -159 293 -188 10 -17 -3 -32 -112 -129 -247 -223
-389 -367 -646 -662 -352 -401 -515 -622 -996 -1345 -632 -950 -712 -1059
-960 -1313 -250 -256 -436 -400 -673 -520 -276 -140 -507 -200 -814 -209 -257
-8 -439 20 -618 97 -139 58 -282 168 -349 265 -30 44 -46 79 -32 70 5 -3 11 0
13 6 2 7 22 10 48 8 179 -11 230 1 300 71 78 78 111 225 78 343 -9 28 -21 74
-27 101 -25 103 -85 145 -207 146 -59 0 -81 -5 -132 -31 -107 -53 -197 -179
-221 -311 -21 -116 -24 -278 -7 -352 25 -105 80 -200 166 -287 321 -324 839
-412 1532 -259 566 125 1230 487 1617 879 246 251 463 588 768 1196 86 171
169 329 185 353 16 23 43 75 59 115 86 207 360 656 590 962 141 189 247 313
394 461 150 151 183 170 249 139 45 -22 86 -76 141 -190 83 -170 112 -345 94
-560 -12 -142 -35 -228 -94 -344 -149 -296 -403 -505 -669 -552 -90 -15 -303
-7 -376 16 -30 9 -103 39 -162 67 -108 51 -138 55 -138 19 0 -48 138 -121 320
-170 63 -17 126 -31 140 -32 18 -1 20 -3 7 -6 -28 -7 -174 26 -257 58 -107 41
-150 37 -150 -16 0 -45 72 -87 230 -134 161 -48 253 -63 385 -63 306 1 592
123 833 356 240 232 353 485 352 790 -1 108 -13 186 -53 336 -60 221 -140 362
-325 568 l-62 70 29 31 c59 63 375 197 589 250 191 48 255 56 447 55 153 0
192 -4 260 -22 163 -45 299 -126 416 -248 172 -180 246 -373 263 -679 7 -111
-11 -220 -60 -371 -23 -71 -25 -85 -14 -100 8 -9 15 -23 16 -31 2 -9 9 -23 18
-31 13 -13 18 -13 41 2 32 21 50 62 70 158 36 168 65 458 47 458 -5 0 -12 53
-15 118 -22 453 -293 792 -726 910 -90 24 -110 26 -326 26 -213 0 -239 -2
-357 -27 -248 -53 -488 -145 -736 -284 l-133 -74 -82 49 c-254 153 -560 269
-877 332 -266 53 -369 62 -715 65 -176 1 -340 1 -365 -1z m670 -74 c346 -30
637 -100 877 -210 90 -42 116 -63 31 -26 -67 29 -332 97 -508 130 -333 63
-674 86 -1013 68 -236 -12 -502 -42 -612 -67 -37 -9 -69 -14 -72 -12 -14 14
368 89 542 106 61 6 124 13 140 15 70 8 509 5 615 -4z m2848 -66 c42 -9 112
-29 154 -45 79 -31 211 -111 238 -144 10 -12 3 -10 -20 7 -73 55 -226 109
-374 133 -117 19 -380 19 -513 0 -235 -33 -491 -118 -752 -249 -58 -30 -117
-57 -131 -60 -61 -16 43 48 215 134 271 135 530 214 780 240 117 11 305 4 403
-16z m-4161 -60 c-3 -3 -12 -4 -19 -1 -8 3 -5 6 6 6 11 1 17 -2 13 -5z m353
-962 c74 -24 144 -70 186 -122 l28 -35 -30 26 c-40 35 -114 68 -198 87 -75 17
-471 24 -531 10 -28 -7 -28 -6 5 9 123 55 406 68 540 25z m-265 -1712 c-66
-66 -122 -120 -125 -120 -2 0 49 54 115 120 66 66 122 120 125 120 2 0 -49
-54 -115 -120z m-145 -133 c0 -2 -17 -19 -37 -38 l-38 -34 34 38 c33 34 41 42
41 34z m-80 -70 c0 -2 -12 -14 -27 -28 l-28 -24 24 28 c23 25 31 32 31 24z
m-65 -57 c-12 -19 -198 -156 -340 -250 -250 -166 -523 -283 -755 -326 -113
-21 -363 -24 -460 -5 -83 15 -181 47 -245 79 -51 25 -175 102 -175 108 0 2 31
-12 70 -31 398 -204 961 -152 1472 135 107 60 297 188 378 254 59 48 65 52 55
36z m-2158 -1629 c295 -108 663 -113 1072 -16 57 14 105 24 107 22 7 -7 -257
-88 -341 -104 -131 -26 -497 -25 -613 0 -124 28 -216 62 -317 117 -114 64
-166 104 -63 50 42 -22 111 -54 155 -69z"/>
<path d="M10878 5563 c-230 -374 -2778 -4562 -2778 -4567 0 -4 10 -4 23 -1 21
6 22 3 19 -37 -6 -69 14 -80 164 -92 160 -12 217 -1 271 54 23 23 253 395 577
936 297 495 548 910 558 924 27 34 68 60 98 60 14 0 49 -16 77 -35 44 -30 126
-59 150 -53 5 1 47 -2 95 -6 153 -14 285 21 504 134 243 125 500 301 660 453
205 193 331 399 381 620 22 99 22 294 0 367 -9 30 -24 84 -33 119 -22 92 -75
190 -138 258 -153 165 -355 175 -564 27 -37 -26 -60 -39 -52 -28 9 10 23 36
33 57 9 21 100 171 201 335 101 163 191 311 200 329 23 46 21 118 -4 136 -19
13 -18 15 20 78 21 35 37 65 36 66 -1 1 -38 -4 -81 -12 -121 -22 -221 -18
-316 11 -12 3 -38 -32 -101 -133z m409 -804 c27 -10 73 -47 73 -58 0 -4 -20
-5 -44 -3 -44 4 -116 -13 -116 -27 0 -3 16 -15 35 -25 74 -40 118 -136 117
-257 -1 -96 -18 -153 -92 -298 -198 -395 -680 -946 -970 -1109 -153 -86 -307
-100 -364 -31 l-24 29 28 72 c93 239 144 324 534 891 253 366 332 461 521 624
33 29 57 54 55 57 -8 8 -136 -28 -154 -43 -9 -7 -16 -11 -16 -8 0 16 159 140
213 167 65 32 148 40 204 19z m-1236 -1909 c31 0 93 7 136 15 43 8 80 15 83
15 18 0 -149 -93 -184 -102 -39 -10 -48 -9 -91 13 -27 13 -59 38 -73 56 l-23
31 47 -14 c26 -8 73 -14 105 -14z"/>
</g>
</svg>
